<svg width="23" height="22" viewBox="0 0 23 22" fill="none" xmlns="http://www.w3.org/2000/svg">
    <path d="M11.9219 3C13.2552 3 14.3438 3.01562 15.1875 3.04687C15.9062 3.07812 16.5469 3.20312 17.1094 3.42187C17.651 3.63021 18.1198 3.93229 18.5156 4.32812C18.9115 4.72396 19.2135 5.19271 19.4219 5.73437C19.6406 6.29687 19.7656 6.9375 19.7969 7.65625C19.8281 8.5 19.8438 9.58854 19.8438 10.9219C19.8438 12.2552 19.8281 13.3437 19.7969 14.1875C19.7656 14.9062 19.6406 15.5469 19.4219 16.1094C19.2135 16.651 18.9115 17.1198 18.5156 17.5156C18.1198 17.9115 17.651 18.2135 17.1094 18.4219C16.5469 18.6406 15.9062 18.7656 15.1875 18.7969C14.3438 18.8281 13.2552 18.8437 11.9219 18.8437C10.5885 18.8437 9.5 18.8281 8.65625 18.7969C7.9375 18.7656 7.29688 18.6406 6.73438 18.4219C6.19271 18.2135 5.72396 17.9115 5.32812 17.5156C4.93229 17.1198 4.63021 16.651 4.42188 16.1094C4.20312 15.5469 4.07812 14.9062 4.04688 14.1875C4.01562 13.3437 4 12.2552 4 10.9219C4 9.58854 4.01562 8.5 4.04688 7.65625C4.07812 6.9375 4.20312 6.29687 4.42188 5.73437C4.63021 5.19271 4.93229 4.72396 5.32812 4.32812C5.72396 3.93229 6.19271 3.63021 6.73438 3.42187C7.29688 3.20312 7.9375 3.07812 8.65625 3.04687C9.5 3.01562 10.5885 3 11.9219 3ZM11.9219 4.03125C10.5365 4.03125 9.40625 4.04687 8.53125 4.07812C7.96875 4.09896 7.44792 4.19792 6.96875 4.375C6.21875 4.6875 5.6875 5.21875 5.375 5.96875C5.19792 6.44792 5.09896 6.96875 5.07812 7.53125C5.04688 8.40625 5.03125 9.53646 5.03125 10.9219C5.03125 12.3073 5.04688 13.4375 5.07812 14.3125C5.09896 14.875 5.19792 15.3958 5.375 15.875C5.6875 16.625 6.21875 17.1562 6.96875 17.4687C7.44792 17.6458 7.96875 17.7448 8.53125 17.7656C9.40625 17.7969 10.5365 17.8125 11.9219 17.8125C13.3073 17.8125 14.4375 17.7969 15.3125 17.7656C15.875 17.7448 16.3958 17.6458 16.875 17.4687C17.625 17.1562 18.1562 16.625 18.4688 15.875C18.6458 15.3958 18.7448 14.875 18.7656 14.3125C18.7969 13.4375 18.8125 12.3073 18.8125 10.9219C18.8125 9.53646 18.7969 8.40625 18.7656 7.53125C18.7448 6.96875 18.6458 6.44792 18.4688 5.96875C18.1562 5.21875 17.625 4.6875 16.875 4.375C16.3958 4.19792 15.875 4.09896 15.3125 4.07812C14.4375 4.04687 13.3073 4.03125 11.9219 4.03125ZM11.9219 14.0937C12.7969 14.0937 13.5443 13.7839 14.1641 13.1641C14.7839 12.5443 15.0938 11.7969 15.0938 10.9219C15.0938 10.0469 14.7839 9.29948 14.1641 8.67969C13.5443 8.0599 12.7969 7.75 11.9219 7.75C11.0469 7.75 10.2995 8.0599 9.67969 8.67969C9.0599 9.29948 8.75 10.0469 8.75 10.9219C8.75 11.7969 9.0599 12.5443 9.67969 13.1641C10.2995 13.7839 11.0469 14.0937 11.9219 14.0937ZM11.9219 6.85937C13.0469 6.85937 14.0052 7.25521 14.7969 8.04687C15.5885 8.83854 15.9844 9.79687 15.9844 10.9219C15.9844 12.0469 15.5885 13.0052 14.7969 13.7969C14.0052 14.5885 13.0469 14.9844 11.9219 14.9844C10.7969 14.9844 9.83854 14.5885 9.04688 13.7969C8.25521 13.0052 7.85938 12.0469 7.85938 10.9219C7.85938 9.79687 8.25521 8.83854 9.04688 8.04687C9.83854 7.25521 10.7969 6.85937 11.9219 6.85937ZM17.1094 6.70312C17.1094 6.96354 17.0156 7.1849 16.8281 7.36719C16.6406 7.54948 16.4115 7.64062 16.1406 7.64062C15.8802 7.64062 15.6589 7.54948 15.4766 7.36719C15.2943 7.1849 15.2031 6.96354 15.2031 6.70312C15.2031 6.43229 15.2943 6.20312 15.4766 6.01562C15.6589 5.82812 15.8802 5.73437 16.1406 5.73437C16.401 5.73437 16.6276 5.83073 16.8203 6.02344C17.013 6.21615 17.1094 6.44271 17.1094 6.70312Z"
          fill="currentColor"/>
</svg>
